<svg width="43" height="47" xmlns="http://www.w3.org/2000/svg" xmlns:xlink="http://www.w3.org/1999/xlink"><defs><path id="a" d="M0 0h43v47H0z"/></defs><g fill="none" fill-rule="evenodd"><mask id="b" fill="#fff"><use xlink:href="#a"/></mask><path d="M32.014 1.303C30.157.391 27.284 0 24.511 0 11.956 0 0 7.04 0 18.896c0 4.188 1.337 8.665 3.67 12.677 2.639 4.536 6.297 8.682 10.664 11.63C17.648 45.44 21.487 47 25.453 47c3.302 0 5.52-.9 6.288-1.53a13.57 13.57 0 0 1-2.117.17c-10.434 0-17.535-9.24-20.195-15.95-1.024-2.586-1.787-5.693-1.787-8.778 0-12.622 11.362-19.553 22.459-19.553.621 0 1.247.02 1.875.063.048.003.08-.027.08-.06 0-.02-.013-.043-.042-.059m1.929 18.754c-5.483 0-10.045 4.06-10.045 9.47 0 5.014 4.127 9.77 10.15 9.77 1.393 0 2.78-.308 4.052-.881.218-.099.504-.192.69-.342.155-.123.228-.34.332-.514 1.607-2.678 3.405-8.811 3.665-12.248.027-.352-.072-.48-.283-.764-1.423-1.916-4.193-4.49-8.561-4.49m9.057.425c0 .463-.01 1.463-.022 1.918-2.042-3.575-6.013-5.63-10.121-5.63-5.996 0-11.475 5.226-11.475 12.138 0 6.796 5.498 11.7 11.666 11.7 1.688 0 3.376-.368 4.92-1.112a20.691 20.691 0 0 1-2.234 2.843c-.372.393-.758.889-1.272 1.077-.585.214-1.814.702-4.003.702-7.329 0-12.315-5.403-14.653-8.879-2.331-3.465-4.345-8.11-4.345-13.08 0-9.909 8.285-15.016 17.38-15.016C38.74 7.144 43 14.974 43 20.483" fill="#000" mask="url(#b)"/></g></svg>